<svg id="Слой_1" data-name="Слой 1" xmlns="http://www.w3.org/2000/svg" viewBox="0 0 251.03 274.92"><defs><style>.cls-1{fill:#fff;}</style></defs><title>На реке</title><path class="cls-1" d="M5.84,40.36H.59V0H5.84V17.64H30V0h5.24V40.36H30V20.29H5.84Z"/><path class="cls-1" d="M51.61,28.48,46.54,40.36H43.89L61,0h2.89L82.63,40.36H77L71.5,28.48Zm9.63-22H61l-8.3,19.43H70.29Z"/><path class="cls-1" d="M116.7,40.36h-5.25V0H125a15.87,15.87,0,0,1,5.82,1,11.94,11.94,0,0,1,4.12,2.62,10.47,10.47,0,0,1,2.45,3.87,13.4,13.4,0,0,1,.81,4.64,12.33,12.33,0,0,1-.92,4.75,11.27,11.27,0,0,1-2.74,3.92A12.82,12.82,0,0,1,130,23.46a18.11,18.11,0,0,1-6.23,1,26.15,26.15,0,0,1-3.8-.25,30.58,30.58,0,0,1-3.23-.67Zm0-19.2a10.07,10.07,0,0,0,2.71.6c1,.1,2.1.15,3.29.15a10.34,10.34,0,0,0,4.44-.87,9,9,0,0,0,3-2.25A8.72,8.72,0,0,0,132,15.71a11.1,11.1,0,0,0,.55-3.37,10.48,10.48,0,0,0-.61-3.49,9.71,9.71,0,0,0-1.81-3.17A9.09,9.09,0,0,0,127,3.4a9.9,9.9,0,0,0-4.27-.86h-6Z"/><path class="cls-1" d="M174.58,0V3.17H153.77V17.64h17.87v2.77H153.77V37.19h20.81v3.17H148.52V0Z"/><path class="cls-1" d="M183.23,0h5.25V22.71L210.1,0H213L198.33,15.62l18,24.74h-6L195,19.2l-6.51,7V40.36h-5.25Z"/><path class="cls-1" d="M251,0V3.17H230.22V17.64h17.87v2.77H230.22V37.19H251v3.17H225V0Z"/><path class="cls-1" d="M53.74,242.41a1.39,1.39,0,1,1,0-2.77,12,12,0,0,0,10.87-7,1.39,1.39,0,0,1,2.53,1.16A14.77,14.77,0,0,1,53.74,242.41Z"/><path class="cls-1" d="M78,242.41a14.77,14.77,0,0,1-13.4-8.61,1.39,1.39,0,0,1,2.53-1.16,12,12,0,0,0,10.87,7,1.39,1.39,0,1,1,0,2.77Z"/><path class="cls-1" d="M78,242.41a1.39,1.39,0,1,1,0-2.77,12,12,0,0,0,10.87-7,1.39,1.39,0,0,1,2.53,1.16A14.77,14.77,0,0,1,78,242.41Z"/><path class="cls-1" d="M102.28,242.41a14.77,14.77,0,0,1-13.4-8.61,1.39,1.39,0,0,1,2.53-1.16,12,12,0,0,0,10.87,7,1.39,1.39,0,1,1,0,2.77Z"/><path class="cls-1" d="M102.28,242.41a1.39,1.39,0,1,1,0-2.77,12,12,0,0,0,10.88-7,1.39,1.39,0,1,1,2.52,1.16A14.75,14.75,0,0,1,102.28,242.41Z"/><path class="cls-1" d="M126.56,242.41a14.75,14.75,0,0,1-13.4-8.61,1.39,1.39,0,0,1,2.52-1.16,12,12,0,0,0,10.88,7,1.39,1.39,0,0,1,0,2.77Z"/><path class="cls-1" d="M126.56,242.41a1.39,1.39,0,1,1,0-2.77,12,12,0,0,0,10.87-7A1.39,1.39,0,0,1,140,233.8,14.77,14.77,0,0,1,126.56,242.41Z"/><path class="cls-1" d="M150.83,242.41a14.77,14.77,0,0,1-13.4-8.61,1.39,1.39,0,0,1,2.53-1.16,12,12,0,0,0,10.87,7,1.39,1.39,0,1,1,0,2.77Z"/><path class="cls-1" d="M150.83,242.41a1.39,1.39,0,1,1,0-2.77,12,12,0,0,0,10.87-7,1.39,1.39,0,0,1,2.53,1.16A14.77,14.77,0,0,1,150.83,242.41Z"/><path class="cls-1" d="M175.1,242.41a14.77,14.77,0,0,1-13.4-8.61,1.39,1.39,0,0,1,2.53-1.16,12,12,0,0,0,10.87,7,1.39,1.39,0,1,1,0,2.77Z"/><path class="cls-1" d="M175.1,242.41a1.39,1.39,0,1,1,0-2.77,12,12,0,0,0,10.87-7,1.39,1.39,0,0,1,2.53,1.16A14.77,14.77,0,0,1,175.1,242.41Z"/><path class="cls-1" d="M199.37,242.41A14.77,14.77,0,0,1,186,233.8a1.39,1.39,0,0,1,2.53-1.16,12,12,0,0,0,10.87,7,1.39,1.39,0,1,1,0,2.77Z"/><path class="cls-1" d="M78,258.67a1.39,1.39,0,0,1,0-2.78,12,12,0,0,0,10.87-7,1.39,1.39,0,1,1,2.53,1.15A14.78,14.78,0,0,1,78,258.67Z"/><path class="cls-1" d="M102.28,258.67a14.78,14.78,0,0,1-13.4-8.62,1.39,1.39,0,1,1,2.53-1.15,12,12,0,0,0,10.87,7,1.39,1.39,0,1,1,0,2.78Z"/><path class="cls-1" d="M102.28,258.67a1.39,1.39,0,0,1,0-2.78,12,12,0,0,0,10.88-7,1.39,1.39,0,1,1,2.52,1.15A14.76,14.76,0,0,1,102.28,258.67Z"/><path class="cls-1" d="M126.56,258.67a14.76,14.76,0,0,1-13.4-8.62,1.39,1.39,0,1,1,2.52-1.15,12,12,0,0,0,10.88,7,1.39,1.39,0,0,1,0,2.78Z"/><path class="cls-1" d="M126.56,258.67a1.39,1.39,0,0,1,0-2.78,12,12,0,0,0,10.87-7,1.39,1.39,0,0,1,2.53,1.15A14.78,14.78,0,0,1,126.56,258.67Z"/><path class="cls-1" d="M150.83,258.67a14.78,14.78,0,0,1-13.4-8.62A1.39,1.39,0,1,1,140,248.9a12,12,0,0,0,10.87,7,1.39,1.39,0,1,1,0,2.78Z"/><path class="cls-1" d="M150.83,258.67a1.39,1.39,0,1,1,0-2.78,12,12,0,0,0,10.87-7,1.39,1.39,0,1,1,2.53,1.15A14.78,14.78,0,0,1,150.83,258.67Z"/><path class="cls-1" d="M175.1,258.67a14.78,14.78,0,0,1-13.4-8.62,1.39,1.39,0,0,1,2.53-1.15,12,12,0,0,0,10.87,7,1.39,1.39,0,1,1,0,2.78Z"/><path class="cls-1" d="M102.28,274.92a1.39,1.39,0,0,1,0-2.78,12,12,0,0,0,10.88-7,1.39,1.39,0,1,1,2.52,1.15A14.74,14.74,0,0,1,102.28,274.92Z"/><path class="cls-1" d="M126.56,274.92a14.74,14.74,0,0,1-13.4-8.62,1.39,1.39,0,1,1,2.52-1.15,12,12,0,0,0,10.88,7,1.39,1.39,0,0,1,0,2.78Z"/><path class="cls-1" d="M126.56,274.92a1.39,1.39,0,0,1,0-2.78,12,12,0,0,0,10.87-7A1.39,1.39,0,1,1,140,266.3,14.76,14.76,0,0,1,126.56,274.92Z"/><path class="cls-1" d="M150.83,274.92a14.76,14.76,0,0,1-13.4-8.62,1.39,1.39,0,1,1,2.53-1.15,12,12,0,0,0,10.87,7,1.39,1.39,0,1,1,0,2.78Z"/><path class="cls-1" d="M73.39,213.59a1.51,1.51,0,0,1-.11.22,13.14,13.14,0,0,1-1.15,2,13.3,13.3,0,0,1-.92,1.21h0A14.75,14.75,0,0,1,60,222.2h-.11a1.38,1.38,0,0,1,0-2.76H60A11.91,11.91,0,0,0,67.23,217l.67-.55.52-.49a5.25,5.25,0,0,0,.4-.42,10.41,10.41,0,0,0,1.05-1.33,3.42,3.42,0,0,0,.26-.4,10.32,10.32,0,0,0,.71-1.31,1.44,1.44,0,0,1,.71-.73l.22-.08.15,0h0a1.29,1.29,0,0,1,.48,0,1.31,1.31,0,0,1,.28.09l.17.09a1.39,1.39,0,0,1,.52.6s0,0,0,0A1.41,1.41,0,0,1,73.39,213.59Z"/><path class="cls-1" d="M85.65,220.81a1.39,1.39,0,0,1-1.39,1.39A14.74,14.74,0,0,1,73.07,217a11.11,11.11,0,0,1-.94-1.23,12.65,12.65,0,0,1-1.17-2,1.24,1.24,0,0,1-.1-.2,1.41,1.41,0,0,1,0-1.12,1.44,1.44,0,0,1,.71-.73l.22-.08.15,0h0a1.11,1.11,0,0,1,.48,0,1.31,1.31,0,0,1,.28.09l.17.09a1.39,1.39,0,0,1,.52.6s0,0,0,0a10.82,10.82,0,0,0,.73,1.34,11.95,11.95,0,0,0,10.12,5.61A1.39,1.39,0,0,1,85.65,220.81Z"/><path class="cls-1" d="M48.9,213.58s0,0,0,.08a13.67,13.67,0,0,1-1.23,2.14c-.22.32-.45.63-.7.93A14.73,14.73,0,0,1,35.5,222.2a1.39,1.39,0,1,1,0-2.78,11.86,11.86,0,0,0,7.58-2.74,11.49,11.49,0,0,0,2.64-3,9.3,9.3,0,0,0,.62-1.17l0,0,.09-.17a1.47,1.47,0,0,1,.43-.43l.17-.09.19-.07.12,0a1.09,1.09,0,0,1,.26,0h0a1.09,1.09,0,0,1,.26,0l.12,0,.19.07.17.09a1.47,1.47,0,0,1,.43.43,1.55,1.55,0,0,1,.12.22A1.4,1.4,0,0,1,48.9,213.58Z"/><path class="cls-1" d="M61.16,220.81a1.39,1.39,0,0,1-1.28,1.38h-.11a14.76,14.76,0,0,1-11.42-5.45,11.28,11.28,0,0,1-.72-.95,13.72,13.72,0,0,1-1.22-2.15.25.25,0,0,1,0-.07,1.4,1.4,0,0,1,0-1.1,1.55,1.55,0,0,1,.12-.22,1.47,1.47,0,0,1,.43-.43l.17-.09.19-.07.12,0a1.09,1.09,0,0,1,.26,0h0a1.09,1.09,0,0,1,.26,0l.12,0,.19.07.17.09a1.47,1.47,0,0,1,.43.43l.09.17,0,0a10.39,10.39,0,0,0,.63,1.19,11.38,11.38,0,0,0,2.77,3.12,11.88,11.88,0,0,0,7.44,2.63h.11A1.38,1.38,0,0,1,61.16,220.81Z"/><path class="cls-1" d="M105.4,213.25c-.11.24-.23.48-.35.71a13.5,13.5,0,0,1-.92,1.51,13.16,13.16,0,0,1-1.57,1.92A14.74,14.74,0,0,1,92,221.87a1.39,1.39,0,0,1,0-2.78,12,12,0,0,0,9.81-5.14,11.35,11.35,0,0,0,1-1.8l0-.05.09-.17a1.47,1.47,0,0,1,.43-.43l.17-.09a.62.62,0,0,1,.19-.07h0l.11,0a1.07,1.07,0,0,1,.25,0,1.24,1.24,0,0,1,.27,0,1.4,1.4,0,0,1,1,.79h0A1.37,1.37,0,0,1,105.4,213.25Z"/><path class="cls-1" d="M117.66,220.48a1.39,1.39,0,0,1-1.39,1.39,14.74,14.74,0,0,1-10.53-4.45,14.38,14.38,0,0,1-1.61-1.95,12.22,12.22,0,0,1-.91-1.52c-.13-.23-.24-.46-.35-.7a1.4,1.4,0,0,1,0-1.1,1.55,1.55,0,0,1,.12-.22,1.47,1.47,0,0,1,.43-.43l.17-.09a.62.62,0,0,1,.19-.07h0l.11,0a1.07,1.07,0,0,1,.25,0,1.24,1.24,0,0,1,.27,0,1.4,1.4,0,0,1,1,.79h0a11.37,11.37,0,0,0,1.07,1.86h0a11.83,11.83,0,0,0,3.81,3.51h0a11.94,11.94,0,0,0,6,1.61A1.39,1.39,0,0,1,117.66,220.48Z"/><path class="cls-1" d="M204.57,208.17c-.21.42-.43.85-.65,1.25l0,0a9.7,9.7,0,0,1-.58.93l0,.07a15.92,15.92,0,0,1-1.58,1.9,14.7,14.7,0,0,1-10.52,4.45,1.1,1.1,0,0,1-.25,0h0a1.4,1.4,0,0,1,.3-2.76h.05a12.11,12.11,0,0,0,6-1.66l0,0a11.54,11.54,0,0,0,3.26-2.88s0,0,0,0A10.66,10.66,0,0,0,202,207a.07.07,0,0,1,0-.05.86.86,0,0,1,.17-.24.82.82,0,0,1,.38-.35,1.72,1.72,0,0,1,.29-.11,1.67,1.67,0,0,1,.38-.06.86.86,0,0,1,.38.06.43.43,0,0,1,.2.06s0,0,.06,0a.39.39,0,0,1,.23.15c.09.06.18.12.2.2a.72.72,0,0,1,.18.24s0,0,0,.05A1.46,1.46,0,0,1,204.57,208.17Z"/><path class="cls-1" d="M216.84,215.41a1.42,1.42,0,0,1-1.4,1.39,14.7,14.7,0,0,1-10.52-4.45l0,0a13.22,13.22,0,0,1-1.58-2,6.2,6.2,0,0,1-.61-.93l0,0c-.23-.4-.45-.83-.65-1.25a1.27,1.27,0,0,1,0-1.14.07.07,0,0,1,0-.05.86.86,0,0,1,.17-.24.82.82,0,0,1,.38-.35s.06,0,.09,0a.39.39,0,0,1,.2-.06,1.67,1.67,0,0,1,.38-.06.86.86,0,0,1,.38.06,1.83,1.83,0,0,1,.26.11.39.39,0,0,1,.23.15c.09.06.18.12.2.2a.72.72,0,0,1,.18.24s0,0,0,.05a9.4,9.4,0,0,0,1.49,2.39s0,0,0,0a11.42,11.42,0,0,0,3.23,2.88l0,0a12.18,12.18,0,0,0,6.1,1.66A1.42,1.42,0,0,1,216.84,215.41Z"/><path class="cls-1" d="M180.17,208.14a14.11,14.11,0,0,1-.67,1.28,9.7,9.7,0,0,1-.58.93,14.8,14.8,0,0,1-12.15,6.42,1.4,1.4,0,1,1,0-2.79,12.23,12.23,0,0,0,6.08-1.65,11.32,11.32,0,0,0,3.28-2.91,10.73,10.73,0,0,0,1.51-2.41.1.1,0,0,1,0-.06.72.72,0,0,1,.18-.24.48.48,0,0,1,.2-.2.55.55,0,0,1,.23-.17s0,0,.06,0a1.44,1.44,0,0,1,.58-.12,1.67,1.67,0,0,1,.38.06l.23.09c.09,0,.18.08.23.17a.5.5,0,0,1,.21.2c.09.06.11.15.17.24s0,0,0,.06A1.35,1.35,0,0,1,180.17,208.14Z"/><path class="cls-1" d="M192.44,215.38a1.42,1.42,0,0,1-1.4,1.39,14.69,14.69,0,0,1-10.52-4.44,13.09,13.09,0,0,1-1.6-2,7.09,7.09,0,0,1-.61-.93c-.23-.41-.46-.84-.67-1.28a1.43,1.43,0,0,1,0-1.13.1.1,0,0,1,0-.06.72.72,0,0,1,.18-.24.48.48,0,0,1,.2-.2.55.55,0,0,1,.23-.17s0,0,.06,0a1.44,1.44,0,0,1,.58-.12,1.67,1.67,0,0,1,.38.06l.23.09c.09,0,.18.08.23.17a.5.5,0,0,1,.21.2c.09.06.11.15.17.24s0,0,0,.06a11.1,11.1,0,0,0,1.51,2.41,11.49,11.49,0,0,0,3.29,2.91A12.1,12.1,0,0,0,191,214,1.42,1.42,0,0,1,192.44,215.38Z"/><path class="cls-1" d="M91.92,153l-16.5-29.55a1.06,1.06,0,0,0-.22-.29V106.66l14,25.1a1.45,1.45,0,0,0,1.27.75,1.4,1.4,0,0,0,.71-.19,1.46,1.46,0,0,0,.56-2L75.26,100.79l-.06-.07V86.57l13.89,24.87a1.44,1.44,0,0,0,1.27.75,1.53,1.53,0,0,0,.71-.18,1.46,1.46,0,0,0,.56-2L75.13,80.48a.83.83,0,0,0-.08-.12.56.56,0,0,1,0-.08l-.08-.12-.08-.1L74.73,80l-.09-.08a1.1,1.1,0,0,0-.14-.09l0,0-.07,0a.61.61,0,0,0-.14-.07l-.14,0-.13,0h-.45l-.12,0-.15.05-.12,0-.13.07-.11.07-.11.09a.47.47,0,0,0-.1.1l-.09.1-.09.13,0,0L56,109.85a1.46,1.46,0,0,0,.56,2,1.43,1.43,0,0,0,.71.19,1.44,1.44,0,0,0,1.27-.75L72.3,86.6v14.77L56.14,130.32a1.45,1.45,0,0,0,.56,2,1.37,1.37,0,0,0,.7.19,1.47,1.47,0,0,0,1.28-.75l13.62-24.4V124L56.21,152.82a1.46,1.46,0,0,0,.56,2,1.53,1.53,0,0,0,.71.18,1.47,1.47,0,0,0,1.27-.74L72.3,130v46.29a1.45,1.45,0,0,0,2.9,0V129l14.18,25.39a1.45,1.45,0,0,0,1.27.75,1.53,1.53,0,0,0,.71-.18A1.46,1.46,0,0,0,91.92,153Z"/><path class="cls-1" d="M160.52,177.69H1.38A1.47,1.47,0,0,1,0,176.44a1.51,1.51,0,0,1,1.37-1.66H160.52Z"/><path class="cls-1" d="M184.79,141.37h-9.54a4.76,4.76,0,0,0-4.76,4.74v40.47a4.77,4.77,0,0,0,4.76,4.74h9.54a4.74,4.74,0,0,0,4.74-4.74V146.11A4.74,4.74,0,0,0,184.79,141.37Zm1.83,45.21a1.82,1.82,0,0,1-1.83,1.83h-9.54a1.86,1.86,0,0,1-1.86-1.83V146.11a1.85,1.85,0,0,1,1.86-1.83h9.54a1.82,1.82,0,0,1,1.83,1.83Z"/><path class="cls-1" d="M209.94,141.37h-9.57a4.74,4.74,0,0,0-4.74,4.74v40.47a4.75,4.75,0,0,0,4.74,4.74h9.57a4.75,4.75,0,0,0,4.74-4.74V146.11A4.74,4.74,0,0,0,209.94,141.37Zm1.83,45.21a1.83,1.83,0,0,1-1.83,1.83h-9.57a1.83,1.83,0,0,1-1.83-1.83V146.11a1.82,1.82,0,0,1,1.83-1.83h9.57a1.82,1.82,0,0,1,1.83,1.83Z"/><path class="cls-1" d="M126.69,209.15s0,0,0-.05a6.54,6.54,0,0,0,1.87-4.54v-3.91a6.6,6.6,0,0,0-12.88-2l0,0c-8.49-1.48-22.82-4-24.93-4.36h0l-31.44-8.35a2.94,2.94,0,0,0-2.44.45l-9.1,6.45H46.52a93.88,93.88,0,0,0-19.18,2c-1.59.31-3.17.7-4.72,1.12-.84.21-1.69.42-2.5.67a2.95,2.95,0,0,0-.84,5.25L41,216.66h0l5.91.07h0a10.5,10.5,0,0,0,.69-.92,9.64,9.64,0,0,0,.71.94h0L71.2,217h0a13.3,13.3,0,0,0,.92-1.21,10.07,10.07,0,0,0,.93,1.22h0l29.46.35h0a13.2,13.2,0,0,0,1.54-1.87s0,0,0,0a14.41,14.41,0,0,0,1.57,1.9h0l4.54.06,5.19.06h0a6.88,6.88,0,0,0,5.78-3.09v.88a4.08,4.08,0,0,0,8.16,0V213A4,4,0,0,0,126.69,209.15ZM58.6,189.42h0l15.81,4.19h-.07l-20-.78h-.56Zm-23.8,7.71a86.31,86.31,0,0,1,11.72-.78h7.75l35.79,1.41h0s16.8,2.93,25.74,4.51a8,8,0,0,1,4.32,2.22L34.7,198.57l-6.09-.42C30.65,197.73,32.73,197.37,34.8,197.13Zm83.56,15.38a3.33,3.33,0,0,1-2.85,1.51l-72.57-.38h0l-2.35-1.59,0,0L25,201.49a0,0,0,0,1,0-.06l96.14,6.68s0,0,0,0Zm.68-12.95a3,3,0,0,1,2.72-2,3.24,3.24,0,0,1,3.26,3.29v3.67a2.49,2.49,0,0,1-.11.7,11.62,11.62,0,0,0-5.85-5.65S119,199.58,119,199.56Zm6.89,15.77c0,.49-1.12.63-1.12,0v-2.64l.21-.11a1.05,1.05,0,0,1,.35-.1.52.52,0,0,1,.56.52Z"/><path class="cls-1" d="M25.79,98.4h-2a12.71,12.71,0,0,0-12.68,12.68v31a12.63,12.63,0,0,0,12.2,12.61h0V175.8a1.46,1.46,0,0,0,2.91,0V154.68h0a12.61,12.61,0,0,0,12.18-12.61v-31A12.68,12.68,0,0,0,25.79,98.4Zm-2,2.91h2a9.76,9.76,0,0,1,9.74,9.77v17.6L26.25,138V127.35l6.68-6.69a1.45,1.45,0,1,0-2.05-2l-4.63,4.63V104.75a1.46,1.46,0,1,0-2.91,0v18.61l-4.75-4.75a1.45,1.45,0,1,0-2.05,2l6.8,6.81v10.61l-9.29-9.29V111.08A9.79,9.79,0,0,1,23.82,101.31Zm-.48,50.47a9.73,9.73,0,0,1-9.29-9.71V132.9l9.29,9.29v9.59Zm2.92,0h0v-9.7l9.28-9.29v9.28A9.71,9.71,0,0,1,26.26,151.78Z"/><path class="cls-1" d="M133.82,78.53A21.44,21.44,0,0,0,112.4,100a20.85,20.85,0,0,0,2.22,9.46s0,0,0,0a15.93,15.93,0,0,0-1.1,31.8v33.56a1.46,1.46,0,1,0,2.91,0V141.22a16,16,0,0,0,14.5-15.85,15.7,15.7,0,0,0-.62-4.31h0a9.07,9.07,0,0,0,2,.23v54.06a1.45,1.45,0,1,0,2.9,0V121.29h0a21.4,21.4,0,0,0-1.46-42.76ZM116.44,138.3V128.16a6.45,6.45,0,0,1,5.38-4.15,1.45,1.45,0,0,0-.21-2.9,8.58,8.58,0,0,0-5.17,2.15v-3.7a1.46,1.46,0,0,0-2.91,0v9.14a11.91,11.91,0,0,0-6.48-4,1.44,1.44,0,0,0-1.69,1.15,1.46,1.46,0,0,0,1.15,1.7,9.43,9.43,0,0,1,7,8.14v2.64a13,13,0,0,1,1.45-26,10.73,10.73,0,0,1,1.44.1,21,21,0,0,0,10.51,7.81h0a12.72,12.72,0,0,1,1.1,5.14A13,13,0,0,1,116.44,138.3Zm18.84-19.89h0v-.08h0v-9c.51-1.21,3.33-7.14,10.15-7.38a1.45,1.45,0,0,0,1.4-1.5A1.41,1.41,0,0,0,145.3,99a13.53,13.53,0,0,0-10,4.89V86.52a1.45,1.45,0,1,0-2.9,0V93a10.24,10.24,0,0,0-5.82-2.08,1.45,1.45,0,0,0-1.45,1.45,1.47,1.47,0,0,0,1.45,1.46,6.53,6.53,0,0,1,5.82,3.93v13.58c-4.29-5.56-11.27-5.66-11.37-5.66a1.46,1.46,0,0,0,0,2.91,11.79,11.79,0,0,1,11.35,9.82,18.53,18.53,0,1,1,2.94,0Z"/><path class="cls-1" d="M248.37,131.37H171.16v-2.8a1.85,1.85,0,0,1,1.84-1.84h74.77a1.49,1.49,0,1,0,0-2.91H173a4.75,4.75,0,0,0-4.75,4.75v2.8H163.6a4.74,4.74,0,0,0-4.74,4.74v45.12h-1.39a4.75,4.75,0,0,0-4.75,4.75v16.09h0a4.64,4.64,0,0,0-1.33,3.29v2.12a4.74,4.74,0,0,0,4.73,4.74h21.2a15.45,15.45,0,0,0,1.63-2c.35.53,1.44,1.83,1.59,2h21.05a14.66,14.66,0,0,0,1.63-2s1.1,1.38,1.7,2h33.8a1.54,1.54,0,0,0,1.34-1.19,1.56,1.56,0,0,0-1.34-1.72h-82.6a1.82,1.82,0,0,1-1.83-1.83v-2.12a1.82,1.82,0,0,1,1.83-1.83h86.52a1.52,1.52,0,1,0,0-2.91H161.77V136.11a1.85,1.85,0,0,1,1.83-1.83h84.77a1.6,1.6,0,0,0,1.76-1.27A1.62,1.62,0,0,0,248.37,131.37Zm-92.25,69.25a1.3,1.3,0,0,0-.49.06h0V186a1.84,1.84,0,0,1,1.84-1.84h1.39v16.48Z"/><path class="cls-1" d="M212.46,77.13A12.86,12.86,0,1,0,225.32,90,12.87,12.87,0,0,0,212.46,77.13Zm0,22.53A9.68,9.68,0,1,1,222.13,90,9.69,9.69,0,0,1,212.46,99.66Z"/><path class="cls-1" d="M235.32,141.37h-9.54a4.77,4.77,0,0,0-4.77,4.74v3.25a4.78,4.78,0,0,0,4.77,4.77h9.54a4.75,4.75,0,0,0,4.74-4.77v-3.25A4.74,4.74,0,0,0,235.32,141.37Zm1.83,8a1.84,1.84,0,0,1-1.83,1.86h-9.54a1.87,1.87,0,0,1-1.86-1.86v-3.25a1.84,1.84,0,0,1,1.86-1.83h9.54a1.82,1.82,0,0,1,1.83,1.83Z"/><path class="cls-1" d="M.48,54.14A3.35,3.35,0,0,1,4,50.76a3.39,3.39,0,1,1,0,6.77A3.36,3.36,0,0,1,.48,54.14Zm6.29,0A2.7,2.7,0,0,0,4,51.38,2.76,2.76,0,1,0,4,56.9,2.7,2.7,0,0,0,6.77,54.14Z"/><path class="cls-1" d="M15.32,51.42H13v6h-.7v-6H9.94v-.61h5.38Z"/><path class="cls-1" d="M24.23,56.86V59h-.66v-1.5H17.76V59h-.66V56.86h.33c1,0,1.16-1.77,1.23-3.89l.08-2.16h4.49v6Zm-5.8,0h4.1V51.42H19.35L19.29,53C19.23,54.77,19.07,56.38,18.43,56.86Z"/><path class="cls-1" d="M32.77,55.28c0,1.44-.92,2.19-2.57,2.19H27.56V50.81h.69v2.38h2.1C31.92,53.19,32.77,53.9,32.77,55.28Zm-.7,0c0-1-.64-1.53-1.88-1.53H28.25v3.15h1.94C31.41,56.91,32.07,56.36,32.07,55.29Zm1.85-4.48h.7v6.66h-.7Z"/><path class="cls-1" d="M38.83,50.81l1.89,2.64,1.88-2.64h.83L41.16,54l2.45,3.46h-.83l-2.06-2.86-2.07,2.86h-.8L40.29,54,38,50.81Z"/><path class="cls-1" d="M56.8,50.81v6.66h-.7V54.4H51.94v3.07h-.71V50.81h.71v3H56.1v-3Z"/><path class="cls-1" d="M65.2,55.69H61.49l-.8,1.78H60l3-6.66h.7l3,6.66H66Zm-.26-.57-1.59-3.58-1.6,3.58Z"/><path class="cls-1" d="M79.67,55.67c0,1.15-.81,1.8-2.42,1.8H74.31V50.81h2.76c1.4,0,2.27.59,2.27,1.71A1.53,1.53,0,0,1,78.25,54,1.56,1.56,0,0,1,79.67,55.67ZM75,53.83h2c1,0,1.59-.42,1.59-1.23s-.58-1.23-1.59-1.23H75Zm4,1.8c0-.87-.6-1.26-1.73-1.26H75v2.54h2.25C78.38,56.91,79,56.5,79,55.63Z"/><path class="cls-1" d="M82.75,54.14a3.5,3.5,0,1,1,3.5,3.39A3.34,3.34,0,0,1,82.75,54.14Zm6.29,0a2.8,2.8,0,1,0-2.79,2.76A2.7,2.7,0,0,0,89,54.14Z"/><path class="cls-1" d="M98.35,50.81v6.66h-.69v-6H94.44l-.07,2.23c-.1,2.66-.52,3.89-1.73,3.89a2.09,2.09,0,0,1-.53-.07l.06-.63a1.2,1.2,0,0,0,.31,0c.85,0,1.17-1,1.26-3.21l.09-2.86Z"/><path class="cls-1" d="M106.73,51.42h-3.55v6h-.7V50.81h4.24Z"/><path class="cls-1" d="M114.54,56.86v.61h-4.71V50.81h4.57v.61h-3.86v2.37H114v.6h-3.44v2.47Z"/><path class="cls-1" d="M127.76,55.67c0,1.15-.81,1.8-2.42,1.8h-3V50.81h2.77c1.4,0,2.26.59,2.26,1.71A1.53,1.53,0,0,1,126.34,54,1.56,1.56,0,0,1,127.76,55.67Zm-4.67-1.84h2c1,0,1.6-.42,1.6-1.23s-.58-1.23-1.6-1.23h-2Zm4,1.8c0-.87-.6-1.26-1.72-1.26h-2.25v2.54h2.25C126.46,56.91,127.06,56.5,127.06,55.63Z"/><path class="cls-1" d="M141.37,50.81v6.66h-.69V54.4h-4.17v3.07h-.7V50.81h.7v3h4.17v-3Z"/><path class="cls-1" d="M144.93,54.14a3.5,3.5,0,1,1,3.5,3.39A3.35,3.35,0,0,1,144.93,54.14Zm6.29,0a2.8,2.8,0,1,0-2.79,2.76A2.7,2.7,0,0,0,151.22,54.14Z"/><path class="cls-1" d="M160.87,55.67c0,1.15-.81,1.8-2.42,1.8H155.5V50.81h2.77c1.4,0,2.27.59,2.27,1.71A1.53,1.53,0,0,1,159.45,54,1.56,1.56,0,0,1,160.87,55.67Zm-4.67-1.84h2c1,0,1.59-.42,1.59-1.23s-.58-1.23-1.59-1.23h-2Zm4,1.8c0-.87-.6-1.26-1.73-1.26H156.2v2.54h2.25C159.58,56.91,160.18,56.5,160.18,55.63Z"/><path class="cls-1" d="M164,54.14a3.5,3.5,0,1,1,3.5,3.39A3.34,3.34,0,0,1,164,54.14Zm6.29,0a2.8,2.8,0,1,0-2.79,2.76A2.7,2.7,0,0,0,170.24,54.14Z"/><path class="cls-1" d="M181.44,50.81v6.66h-.68V52.14l-2.62,4.49h-.33l-2.62-4.46v5.3h-.67V50.81h.58L178,55.75l2.86-4.94Z"/><path class="cls-1" d="M193.53,57v.68h-.65V57c-2.24-.08-3.56-1.12-3.56-2.89s1.32-2.8,3.56-2.88v-.67h.65v.67c2.23.08,3.56,1.12,3.56,2.88S195.77,57,193.53,57Zm-.65-.57V51.82c-1.84.08-2.88.89-2.88,2.31S191.07,56.37,192.88,56.45Zm3.54-2.32c0-1.42-1.07-2.24-2.89-2.31v4.63C195.36,56.38,196.42,55.56,196.42,54.13Z"/><path class="cls-1" d="M200,54.14a3.5,3.5,0,1,1,3.5,3.39A3.34,3.34,0,0,1,200,54.14Zm6.28,0a2.8,2.8,0,1,0-2.78,2.76A2.69,2.69,0,0,0,206.29,54.14Z"/><path class="cls-1" d="M215.79,53.1c0,1.41-1,2.27-2.72,2.27h-1.79v2.1h-.7V50.81h2.49C214.76,50.81,215.79,51.67,215.79,53.1Zm-.7,0c0-1.07-.71-1.68-2-1.68h-1.77v3.33h1.77C214.38,54.75,215.09,54.14,215.09,53.1Z"/><path class="cls-1" d="M226.05,50.81v6.66h-.67V52.14l-2.62,4.49h-.33l-2.62-4.46v5.3h-.68V50.81h.58l2.9,4.94,2.86-4.94Z"/><path class="cls-1" d="M234.45,55.69h-3.71l-.8,1.78h-.73l3-6.66H233L236,57.47h-.75Zm-.25-.57-1.6-3.58L231,55.12Z"/><path class="cls-1" d="M243.19,51.42h-2.34v6h-.69v-6h-2.34v-.61h5.37Z"/><path class="cls-1" d="M251,56.86v.61h-4.71V50.81h4.57v.61H247v2.37h3.44v.6H247v2.47Z"/></svg>