<svg id="Слой_1" data-name="Слой 1" xmlns="http://www.w3.org/2000/svg" viewBox="0 0 250.67 114.93"><defs><style>.cls-1{fill:#1d1d1b;}</style></defs><title>На реке</title><path class="cls-1" d="M5.25,96.24H0V55.86H5.25V73.51H29.42V55.86h5.25V96.24H29.42V76.17H5.25Z"/><path class="cls-1" d="M51.06,84.36,46,96.24H43.32L60.4,55.86h2.89l18.8,40.38H76.5L71,84.36Zm9.63-22h-.23L52.15,81.76h17.6Z"/><path class="cls-1" d="M116.19,96.24h-5.25V55.86h13.5a15.83,15.83,0,0,1,5.82,1,11.86,11.86,0,0,1,4.13,2.63,10.47,10.47,0,0,1,2.45,3.86,13.44,13.44,0,0,1,.81,4.64,12.17,12.17,0,0,1-.93,4.76A11.14,11.14,0,0,1,134,76.66a13,13,0,0,1-4.52,2.68,18.41,18.41,0,0,1-6.24,1,26.08,26.08,0,0,1-3.8-.26,27.86,27.86,0,0,1-3.23-.66Zm0-19.21a10.37,10.37,0,0,0,2.71.61c1,.09,2.09.14,3.29.14a10.5,10.5,0,0,0,4.44-.86,9.29,9.29,0,0,0,3.06-2.25,8.92,8.92,0,0,0,1.76-3.09,11.08,11.08,0,0,0,.54-3.37,10.72,10.72,0,0,0-.6-3.49,9.78,9.78,0,0,0-1.82-3.18,9.09,9.09,0,0,0-3.06-2.28,10,10,0,0,0-4.27-.86h-6Z"/><path class="cls-1" d="M174.11,55.86V59H153.28V73.51h17.88v2.77H153.28V93.07h20.83v3.17H148V55.86Z"/><path class="cls-1" d="M182.76,55.86H188V78.59l21.63-22.73h2.89L197.87,71.49l18,24.75h-6L194.53,75.07l-6.52,7V96.24h-5.25Z"/><path class="cls-1" d="M250.6,55.86V59H229.78V73.51h17.88v2.77H229.78V93.07H250.6v3.17H224.53V55.86Z"/><path class="cls-1" d="M.06,110.1a3.34,3.34,0,0,1,3.5-3.38,3.39,3.39,0,1,1,0,6.77A3.35,3.35,0,0,1,.06,110.1Zm6.29,0a2.7,2.7,0,0,0-2.79-2.75,2.76,2.76,0,1,0,0,5.51A2.7,2.7,0,0,0,6.35,110.1Z"/><path class="cls-1" d="M14.89,107.38H12.55v6.05h-.69v-6.05H9.52v-.6h5.37Z"/><path class="cls-1" d="M23.8,112.82v2.11h-.65v-1.5H17.34v1.5h-.66v-2.11H17c1,0,1.16-1.76,1.23-3.89l.08-2.15h4.49v6Zm-5.79,0h4.1v-5.44H18.93L18.87,109C18.81,110.73,18.65,112.34,18,112.82Z"/><path class="cls-1" d="M32.35,111.25c0,1.43-.92,2.18-2.56,2.18H27.14v-6.65h.7v2.37h2.09C31.5,109.15,32.35,109.87,32.35,111.25Zm-.7,0c0-1-.64-1.54-1.88-1.54H27.84v3.15h1.93C31,112.87,31.65,112.32,31.65,111.26Zm1.85-4.48h.7v6.65h-.7Z"/><path class="cls-1" d="M38.41,106.78l1.89,2.63,1.89-2.63H43L40.74,110l2.45,3.46h-.82l-2.07-2.86-2.06,2.86h-.81L39.88,110l-2.28-3.22Z"/><path class="cls-1" d="M56.38,106.78v6.65h-.69v-3.07H51.52v3.07h-.7v-6.65h.7v3h4.17v-3Z"/><path class="cls-1" d="M64.79,111.65H61.08l-.8,1.78h-.73l3-6.65h.7l3,6.65h-.74Zm-.26-.57-1.59-3.57-1.6,3.57Z"/><path class="cls-1" d="M79.26,111.64c0,1.14-.8,1.79-2.41,1.79H73.9v-6.65h2.77c1.4,0,2.26.59,2.26,1.7A1.54,1.54,0,0,1,77.85,110,1.56,1.56,0,0,1,79.26,111.64Zm-4.67-1.85h2c1,0,1.6-.42,1.6-1.23s-.58-1.22-1.6-1.22h-2Zm4,1.8c0-.87-.6-1.26-1.72-1.26H74.59v2.54h2.26C78,112.87,78.57,112.46,78.57,111.59Z"/><path class="cls-1" d="M82.34,110.1a3.5,3.5,0,1,1,3.5,3.39A3.35,3.35,0,0,1,82.34,110.1Zm6.29,0a2.8,2.8,0,1,0-2.79,2.76A2.7,2.7,0,0,0,88.63,110.1Z"/><path class="cls-1" d="M98,106.78v6.65h-.69v-6.05H94L94,109.61c-.1,2.66-.52,3.89-1.73,3.89a2.09,2.09,0,0,1-.53-.07l.06-.62.31,0c.85,0,1.17-1,1.26-3.21l.09-2.85Z"/><path class="cls-1" d="M106.33,107.38h-3.55v6.05h-.69v-6.65h4.23Z"/><path class="cls-1" d="M114.15,112.82v.61h-4.71v-6.65H114v.6h-3.86v2.37h3.44v.6h-3.44v2.47Z"/><path class="cls-1" d="M127.36,111.64c0,1.14-.8,1.79-2.41,1.79h-3v-6.65h2.77c1.4,0,2.26.59,2.26,1.7A1.54,1.54,0,0,1,126,110,1.56,1.56,0,0,1,127.36,111.64Zm-4.67-1.85h2c1,0,1.6-.42,1.6-1.23s-.58-1.22-1.6-1.22h-2Zm4,1.8c0-.87-.6-1.26-1.72-1.26h-2.26v2.54H125C126.07,112.87,126.67,112.46,126.67,111.59Z"/><path class="cls-1" d="M141,106.78v6.65h-.69v-3.07h-4.17v3.07h-.7v-6.65h.7v3h4.17v-3Z"/><path class="cls-1" d="M144.55,110.1a3.5,3.5,0,1,1,3.5,3.39A3.34,3.34,0,0,1,144.55,110.1Zm6.28,0a2.8,2.8,0,1,0-2.78,2.76A2.69,2.69,0,0,0,150.83,110.1Z"/><path class="cls-1" d="M160.49,111.64c0,1.14-.81,1.79-2.42,1.79h-2.95v-6.65h2.77c1.4,0,2.26.59,2.26,1.7a1.54,1.54,0,0,1-1.08,1.52A1.57,1.57,0,0,1,160.49,111.64Zm-4.68-1.85h2c1,0,1.6-.42,1.6-1.23s-.58-1.22-1.6-1.22h-2Zm4,1.8c0-.87-.6-1.26-1.72-1.26h-2.26v2.54h2.26C159.19,112.87,159.79,112.46,159.79,111.59Z"/><path class="cls-1" d="M163.57,110.1a3.5,3.5,0,1,1,3.5,3.39A3.34,3.34,0,0,1,163.57,110.1Zm6.28,0a2.8,2.8,0,1,0-2.78,2.76A2.69,2.69,0,0,0,169.85,110.1Z"/><path class="cls-1" d="M181.05,106.78v6.65h-.67v-5.32l-2.62,4.48h-.33l-2.61-4.45v5.29h-.68v-6.65h.58l2.89,4.93,2.86-4.93Z"/><path class="cls-1" d="M193.16,113v.68h-.66V113c-2.23-.08-3.55-1.12-3.55-2.89s1.32-2.8,3.55-2.88v-.66h.66v.66c2.22.08,3.56,1.13,3.56,2.88S195.39,112.91,193.16,113Zm-.66-.56v-4.64c-1.83.08-2.88.89-2.88,2.31S190.7,112.33,192.5,112.42Zm3.54-2.33c0-1.42-1.06-2.24-2.88-2.31v4.64C195,112.34,196,111.52,196,110.09Z"/><path class="cls-1" d="M199.63,110.1a3.5,3.5,0,1,1,3.51,3.39A3.35,3.35,0,0,1,199.63,110.1Zm6.29,0a2.8,2.8,0,1,0-2.78,2.76A2.69,2.69,0,0,0,205.92,110.1Z"/><path class="cls-1" d="M215.42,109.06c0,1.42-1,2.27-2.72,2.27h-1.79v2.1h-.7v-6.65h2.49C214.39,106.78,215.42,107.63,215.42,109.06Zm-.7,0c0-1.07-.71-1.68-2-1.68h-1.77v3.33h1.77C214,110.71,214.72,110.1,214.72,109.06Z"/><path class="cls-1" d="M225.68,106.78v6.65H225v-5.32l-2.62,4.48h-.33l-2.62-4.45v5.29h-.67v-6.65h.58l2.89,4.93,2.86-4.93Z"/><path class="cls-1" d="M234.09,111.65h-3.71l-.8,1.78h-.73l3-6.65h.7l3,6.65h-.74Zm-.26-.57-1.6-3.57-1.59,3.57Z"/><path class="cls-1" d="M242.83,107.38h-2.34v6.05h-.7v-6.05h-2.33v-.6h5.37Z"/><path class="cls-1" d="M250.67,112.82v.61H246v-6.65h4.56v.6h-3.86v2.37h3.44v.6h-3.44v2.47Z"/><path class="cls-1" d="M178.2,8.46A13,13,0,0,1,166.42.88a.35.35,0,0,0,0-.08L166.3.67l-.09-.12-.1-.11L166,.34l-.11-.08-.14-.08-.08,0h0l-.14,0-.14,0-.14,0h-.29l-.15,0-.14,0-.15,0h-.05l-.07,0-.14.08-.11.08-.11.1-.1.11-.09.11-.08.15a.43.43,0,0,0,0,.07,13,13,0,0,1-11.79,7.58A13,13,0,0,1,140.11.88a.43.43,0,0,0,0-.07c0-.05,0-.1-.08-.14L139.9.55l-.1-.11-.11-.1-.11-.08-.14-.09-.07,0h-.05l-.16-.06L139,0l-.15,0h-.29l-.14,0-.14,0-.15,0h0l-.08,0-.14.09-.11.08-.11.1-.1.11-.09.12-.08.13s0,0,0,.08a13,13,0,0,1-11.78,7.58A13,13,0,0,1,113.8.88s0-.05,0-.08l-.08-.13-.09-.12L113.5.44l-.12-.1-.11-.08-.14-.09-.07,0h0l-.16-.06-.12,0-.16,0h-.28l-.15,0-.13,0-.16.06h0l-.07,0-.15.09-.1.08-.12.1-.1.11a.83.83,0,0,0-.08.12.64.64,0,0,0-.08.14.18.18,0,0,0,0,.07A13,13,0,0,1,99.28,8.46,13,13,0,0,1,87.5.88l0-.07a.64.64,0,0,0-.08-.14L87.29.55l-.1-.11-.12-.1L87,.26,86.82.17l-.07,0h0L86.54.06l-.12,0-.16,0H86l-.14,0-.14,0-.15.06h0l-.07,0-.14.09-.11.08-.12.1L85,.55l-.08.12a.64.64,0,0,0-.08.14.16.16,0,0,0,0,.07A13,13,0,0,1,73,8.46a1.51,1.51,0,0,0,0,3A16,16,0,0,0,86.13,4.53a16,16,0,0,0,13.15,6.94,16,16,0,0,0,13.15-6.94,16,16,0,0,0,13.16,6.94,16,16,0,0,0,13.15-6.94,16,16,0,0,0,13.15,6.94,16,16,0,0,0,13.16-6.94,16,16,0,0,0,13.15,6.94,1.51,1.51,0,1,0,0-3Z"/><path class="cls-1" d="M151.89,26.07a13,13,0,0,1-11.78-7.58.43.43,0,0,1,0-.07l-.08-.14-.09-.11a1.56,1.56,0,0,0-.21-.21l-.11-.09-.14-.08-.07,0-.05,0-.16-.05a.5.5,0,0,0-.13,0l-.15,0h-.29l-.14,0-.14,0-.14.05,0,0-.08,0-.14.08-.11.09a1.56,1.56,0,0,0-.21.21l-.09.11-.08.14a.43.43,0,0,1,0,.07,13,13,0,0,1-23.57,0,.43.43,0,0,1,0-.07,1,1,0,0,0-.08-.14l-.09-.11-.09-.11-.12-.1-.11-.08a.67.67,0,0,0-.14-.09l-.07,0,0,0-.16-.05-.12,0-.16,0h-.28l-.15,0-.13,0-.16.05,0,0-.07,0-.15.09-.11.08-.11.1-.1.11a.76.76,0,0,0-.08.11,1,1,0,0,0-.08.14l0,.07a13,13,0,0,1-11.78,7.58,1.51,1.51,0,1,0,0,3,16,16,0,0,0,13.15-6.93,16,16,0,0,0,26.31,0,16,16,0,0,0,13.15,6.93,1.51,1.51,0,1,0,0-3Z"/></svg>