<svg width="16" height="19" viewBox="0 0 16 19" fill="none" xmlns="http://www.w3.org/2000/svg">
<path d="M7.99712 11.3117C6.18043 11.3117 4.69638 9.86397 4.69638 8.07317C4.69638 6.28238 6.18043 4.84305 7.99712 4.84305C9.8138 4.84305 11.2978 6.29075 11.2978 8.08154C11.2978 9.87234 9.8138 11.3117 7.99712 11.3117ZM7.99712 6.09828C6.88834 6.09828 5.97574 6.98531 5.97574 8.08154C5.97574 9.17778 6.87981 10.0648 7.99712 10.0648C9.11442 10.0648 10.0185 9.17778 10.0185 8.08154C10.0185 6.98531 9.10589 6.09828 7.99712 6.09828Z" fill="#3A3A3A"/>
<path d="M7.99737 18.5C6.73507 18.5 5.46424 18.0314 4.47488 17.1025C1.95881 14.7259 -0.821652 10.9351 0.227419 6.42469C1.17414 2.33264 4.81604 0.5 7.99737 0.5C7.99737 0.5 7.99737 0.5 8.00589 0.5C11.1872 0.5 14.8291 2.33264 15.7758 6.43305C16.8164 10.9435 14.0359 14.7259 11.5199 17.1025C10.5305 18.0314 9.25966 18.5 7.99737 18.5ZM7.99737 1.75523C5.51542 1.75523 2.32556 3.0523 1.48119 6.70084C0.560051 10.6423 3.08464 14.0397 5.37042 16.1904C6.84595 17.5879 9.15731 17.5879 10.6328 16.1904C12.9101 14.0397 15.4347 10.6423 14.5306 6.70084C13.6777 3.0523 10.4793 1.75523 7.99737 1.75523Z" fill="#3A3A3A"/>
</svg>
